<svg width="14" height="19" viewBox="0 0 14 19" fill="none" xmlns="http://www.w3.org/2000/svg">
<path d="M7 18.0037C5.73693 16.9263 4.56619 15.7452 3.5 14.4727C1.9 12.5617 8.83662e-07 9.71571 8.83662e-07 7.00371C-0.00141728 4.17126 1.70425 1.6171 4.32107 0.53311C6.93789 -0.550883 9.95007 0.0489528 11.952 2.05271C13.2685 3.36332 14.0059 5.1461 14 7.00371C14 9.71571 12.1 12.5617 10.5 14.4727C9.43382 15.7452 8.26307 16.9263 7 18.0037ZM7 4.00371C5.92821 4.00371 4.93782 4.57551 4.40193 5.50371C3.86603 6.43192 3.86603 7.57551 4.40193 8.50371C4.93782 9.43192 5.92821 10.0037 7 10.0037C8.65686 10.0037 10 8.66057 10 7.00371C10 5.34686 8.65686 4.00371 7 4.00371Z" fill="white"/>
</svg>
