<svg width="24" height="24" viewBox="0 0 24 24" fill="none" xmlns="http://www.w3.org/2000/svg">
<path d="M22.4962 24C9.69881 24.0181 -0.0136764 14.1892 1.44561e-05 1.50376C1.44561e-05 0.675338 0.671588 0 1.50001 0H5.45905C6.20241 0 6.8339 0.546194 6.94305 1.28149C7.20467 3.0438 7.71776 4.75945 8.46673 6.37605L8.62087 6.70876C8.83519 7.17136 8.68992 7.72101 8.27501 8.01731C7.04895 8.89289 6.58038 10.6553 7.53555 12.0305C8.73417 13.7563 10.2451 15.2669 11.9704 16.4649C13.3455 17.4198 15.1077 16.9513 15.9833 15.7255C16.2798 15.3103 16.8297 15.165 17.2926 15.3794L17.6238 15.5328C19.2405 16.2817 20.9563 16.7949 22.7187 17.0564C23.4541 17.1656 24 17.797 24 18.5404V22.5C24 23.3284 23.3268 24 22.4984 24L22.4962 24Z" fill="white"/>
</svg>
