<svg width="20" height="20" viewBox="0 0 20 20" fill="none" xmlns="http://www.w3.org/2000/svg">
<path d="M18.7469 20C8.08234 20.0151 -0.011397 11.8244 1.20468e-05 1.25314C1.20468e-05 0.562781 0.559656 0 1.25001 0H4.54921C5.16867 0 5.69491 0.455162 5.78588 1.06791C6.00389 2.5365 6.43147 3.96621 7.05561 5.31338L7.18406 5.59063C7.36266 5.97613 7.2416 6.43418 6.89585 6.68109C5.87412 7.41074 5.48365 8.87944 6.27962 10.0254C7.27847 11.4635 8.53756 12.7224 9.97534 13.7208C11.1213 14.5165 12.5898 14.1261 13.3194 13.1046C13.5665 12.7586 14.0248 12.6375 14.4105 12.8162L14.6865 12.944C16.0337 13.5681 17.4636 13.9957 18.9323 14.2137C19.5451 14.3046 20 14.8308 20 15.4503V18.75C20 19.4403 19.439 20 18.7486 20L18.7469 20Z" fill="#009F21"/>
</svg>
