<svg width="200" height="21" viewBox="0 0 200 21" fill="none" xmlns="http://www.w3.org/2000/svg">
<path d="M198.343 15.2637C197.647 16.5495 196.653 17.4396 195.46 18.0659C196.454 16.6484 197.15 14.5385 196.255 12.956C195.327 11.3077 192.709 10.9121 191.085 11.6703C189.196 12.5275 189.296 14.5714 190.389 16.022C191.052 16.9451 192.61 16.055 191.947 15.1319C190.688 13.4506 192.709 12.7912 193.935 13.3187C195.327 13.8791 194.863 15.5275 194.333 16.5495C193.471 18.2308 191.848 19.055 190.025 19.2198C189.992 19.2198 189.992 19.2198 189.959 19.2198C188.931 19.1868 187.871 19.055 186.943 18.8242C183.662 18.033 180.679 16.4176 177.796 14.6703C183.96 13.8462 189.296 10.6154 193.206 5.83517C193.935 4.94506 192.676 3.69231 191.947 4.58242C188.036 9.32968 182.701 12.5604 176.504 13.055C176.073 13.0879 175.642 13.1209 175.178 13.1209C175.012 13.0879 174.88 13.0879 174.747 13.1209C172.659 13.1539 170.605 12.9231 168.517 12.5604C168.65 11.2088 168.484 9.85715 167.954 8.67033C167.755 8.2088 167.523 7.81319 167.258 7.45056C169.279 8.07693 171.268 8.63737 173.223 8.8022C176.669 9.13187 180.613 9.49451 183.065 6.59341C184.325 5.07693 185.551 1.61539 183.463 0.164841C182.502 -0.4945 181.607 1.05495 182.568 1.71429C182.8 1.87913 182.767 2.86814 182.767 3.13187C182.701 4.08792 182.138 5.01099 181.508 5.7033C180.083 7.18682 178.293 7.18682 176.371 7.18682C172.328 7.12088 168.749 6.13187 164.938 4.87913C159.238 3.00001 153.372 2.3077 148.799 6.82418C143.728 5.17583 138.658 3.52748 133.521 2.24176C127.821 0.791214 121.756 0.230775 116.222 2.63737C112.577 4.25275 109.594 6.85715 107.274 9.98902C105.916 11.6703 104.888 13.7802 103.861 15.4615C103.529 15.989 103.861 16.5165 104.325 16.7143C104.722 17.044 105.319 17.1099 105.617 16.4835C106.114 15.3297 106.711 14.2088 107.341 13.1539C107.904 12.2637 108.467 11.3736 109.13 10.5824C110.588 8.83517 112.742 8.37363 114.93 8.4066C117.183 8.43957 119.337 9.03297 121.425 9.82418C121.491 9.85715 121.558 9.92308 121.657 9.95605C124.706 10.9451 126.297 14.4396 128.683 16.3846C130.969 18.2637 133.919 19.5165 136.802 18.2308C137.796 17.8022 138.691 17.044 139.354 16.1539C141.773 16.022 143.96 15.033 145.617 12.5604C146.247 11.6044 144.722 10.7143 144.06 11.6703C143.065 13.1539 141.74 13.9451 140.315 14.2418C140.58 13.3517 140.613 12.3956 140.315 11.4725C139.553 9.13187 136.371 7.38462 134.283 9.16484C133.422 9.92308 134.681 11.1758 135.543 10.4176C136.239 9.82418 137.564 10.5165 138.028 10.978C138.592 11.5714 138.79 12.3956 138.724 13.1868C138.691 13.5824 138.558 13.978 138.36 14.3736C136.736 14.3077 135.046 13.8462 133.488 13.2857C129.876 12 126.595 10.055 123.082 8.57143C122.784 8.43957 122.486 8.3077 122.154 8.17583H122.121C121.988 8.1099 121.823 8.04396 121.69 8.01099C118.94 6.98902 115.824 6.26374 112.875 6.69231C114.134 5.7033 115.493 4.84616 116.984 4.18682C123.215 1.41759 130.141 2.93407 136.404 4.78023C143.43 6.85715 150.423 9.13187 157.415 11.3077C160.365 12.2308 163.38 13.1539 166.429 13.8462C165.7 15.6923 164.142 17.3736 161.988 17.2747C161.027 17.2418 159.669 16.7473 158.973 16.0879C158.045 15.2637 158.111 14.1429 158.343 13.055C158.608 11.9341 156.885 11.4725 156.62 12.5934C155.99 15.3297 156.918 17.3407 159.536 18.4615C162.187 19.5824 165.269 18.9231 167.059 16.5824C167.589 15.8901 168.02 15.0989 168.285 14.2418C170.472 14.6374 172.659 14.8681 174.88 14.8681C179.122 17.5055 183.629 20.2747 188.699 20.8681C192.941 21.3626 197.879 20.1099 200.033 16.1539C200.431 15.1648 198.873 14.2747 198.343 15.2637ZM136.901 16.055C136.736 16.1868 136.603 16.2857 136.437 16.3846C134.085 17.7692 131.5 16.5495 129.611 14.967C128.782 14.2747 128.086 13.4835 127.39 12.6593C127.423 12.6923 127.49 12.6923 127.523 12.7253C130.273 14.044 133.654 15.5934 136.901 16.055ZM154.731 8.73627C153.372 8.3077 152.013 7.87913 150.655 7.45056C153.67 4.91209 157.051 4.81319 160.53 5.53847C160.597 5.57143 160.663 5.6044 160.729 5.6044C162.32 6.00001 164.01 6.52748 165.17 7.74726C166.363 8.96704 166.86 10.6154 166.694 12.2308C162.651 11.3407 158.641 9.92308 154.731 8.73627Z" fill="#389A20"/>
<path d="M92.9247 10.1209C91.0026 7.45056 88.5833 5.14286 85.667 3.49451C80.5966 0.659346 74.8302 0.494511 69.2296 1.58242C63.1649 2.76924 57.2329 4.84616 51.3008 6.79121C46.7275 2.27473 40.8617 2.96704 35.1616 4.84616C31.4831 6.06594 28.0034 7.08792 24.0597 7.15385C22.1044 7.18682 20.2155 7.28572 18.7242 5.86814C18.0614 5.2088 17.4317 4.28572 17.2991 3.32968C17.266 3.03297 17.1997 1.87913 17.4648 1.71429C18.3928 1.05495 17.498 -0.461533 16.5701 0.164841C14.5817 1.54946 15.609 4.87913 16.802 6.39561C19.2213 9.49451 23.2312 9.13187 26.7772 8.8022C28.6993 8.63737 30.7209 8.07693 32.7093 7.45056C32.5104 7.74726 32.3116 8.07693 32.1459 8.43957C31.5494 9.72528 31.3174 11.1758 31.4499 12.5934C29.6935 12.8901 27.9371 13.0879 26.1475 13.1209C25.8161 13.1209 25.5179 13.1209 25.1865 13.1209C25.087 13.0879 24.9545 13.0879 24.8219 13.1209C18.1276 12.8901 12.295 9.82418 8.01994 4.61539C7.29086 3.72528 6.03154 4.97803 6.76062 5.86814C10.406 10.2198 15.2113 13.4176 20.8451 14.4725C21.3091 14.5714 21.773 14.6374 22.237 14.6703C19.3538 16.4176 16.3712 18.033 13.0904 18.8242C12.1293 19.055 11.102 19.1868 10.0746 19.2198C10.0415 19.2198 10.0415 19.2198 10.0083 19.2198C8.18564 19.055 6.56178 18.1978 5.70014 16.5495C5.23618 15.6923 4.77222 14.1429 5.76642 13.4506C6.09782 13.2198 6.86004 13.1539 7.25772 13.1539C7.95366 13.022 8.25192 13.2857 8.18564 14.011C8.4839 14.4725 8.4839 14.8352 8.08622 15.1648C7.39028 16.0879 8.94786 16.978 9.6438 16.055C10.7374 14.6044 10.8368 12.5604 8.94786 11.7033C7.324 10.9451 4.70594 11.3736 3.77801 12.989C2.88323 14.6044 3.57917 16.6813 4.57338 18.0989C3.34719 17.4725 2.35299 16.5495 1.65705 15.2637C1.12681 14.2418 -0.430768 15.1648 0.0994723 16.1539C2.25357 20.1429 7.1583 21.3956 11.4334 20.8681C16.5038 20.2747 21.0108 17.5055 25.2859 14.8352C27.4731 14.8681 29.6935 14.6044 31.8476 14.2088C32.1127 15.0659 32.5436 15.8571 33.0738 16.5824C34.7639 18.7912 37.7797 19.5824 40.3315 18.5604C43.0821 17.4725 44.2088 15.4615 43.5129 12.5934C43.2478 11.4725 41.5245 11.967 41.7896 13.055C42.353 15.4286 40.8948 16.8132 38.6082 17.2088C36.2552 17.6044 34.4657 15.8242 33.7035 13.8462C35.7581 13.3846 37.7797 12.8242 39.7681 12.2308C46.7938 10.1209 53.7863 7.87913 60.812 5.7033C67.3737 3.65935 74.532 1.35165 81.3588 3.49451C83.5792 4.18682 85.5344 5.27473 87.2577 6.65935C84.3083 6.23078 81.16 6.95605 78.4425 7.97803C78.3099 8.04396 78.1442 8.1099 78.0117 8.14286H77.9785C77.6471 8.24176 77.3489 8.37363 77.0506 8.53847C73.6372 9.98902 70.4226 11.8681 66.9429 13.1539C65.2859 13.7473 63.4632 14.2747 61.7399 14.3407C61.6074 14.1099 61.5079 13.8462 61.4417 13.6154C61.0771 12.2637 62.8004 8.86814 64.5568 10.3846C65.4185 11.1429 66.6778 9.89012 65.8161 9.13187C63.7615 7.35165 60.6463 9.03297 59.8178 11.3077C59.4864 12.2637 59.4864 13.2528 59.7515 14.2088C58.2934 13.9121 57.0009 13.1209 56.0067 11.6374C55.377 10.6813 53.8195 11.5714 54.4491 12.5275C56.1061 15 58.2934 15.989 60.7126 16.1209C61.3754 17.011 62.2702 17.7363 63.2644 18.1978C66.0481 19.4506 68.9313 18.2967 71.1517 16.5165C72.4441 15.4945 73.5709 14.3077 74.5983 13.022C75.6587 11.6374 76.6861 10.4506 78.4094 9.89012C78.5088 9.85715 78.5751 9.82418 78.6413 9.75825C80.6297 8.96704 82.6844 8.4066 84.8385 8.34067C87.1252 8.24176 89.445 8.7033 90.9363 10.5165C91.4665 11.1429 91.9305 11.8352 92.3944 12.5275C93.1898 13.7802 93.8857 15.0659 94.4823 16.4176C94.7474 17.011 95.377 16.978 95.7747 16.6484C96.2387 16.4506 96.5701 15.9561 96.2387 15.3956C95.2113 13.8132 94.2171 11.8022 92.9247 10.1209ZM33.2726 12.2308C33.1069 10.6813 33.5378 9.13187 34.5982 7.91209C35.7913 6.59341 37.5477 6.03297 39.2378 5.6044C39.3041 5.57143 39.3704 5.57143 39.4367 5.53847C42.9164 4.81319 46.3298 4.91209 49.3455 7.45056C48.8816 7.61539 48.3845 7.74726 47.9205 7.91209C43.1484 9.36264 38.2768 11.1758 33.2726 12.2308ZM70.3895 14.9341C68.5005 16.5165 65.9156 17.7692 63.5626 16.3517C63.3969 16.2528 63.2312 16.1539 63.0987 16.022C66.3464 15.5604 69.7267 14.011 72.4773 12.6923C72.5104 12.6593 72.5767 12.6593 72.6098 12.6264C71.9139 13.4506 71.1848 14.2418 70.3895 14.9341Z" fill="#389A20"/>
</svg>
