<svg width="40" height="40" viewBox="0 0 40 40" fill="none" xmlns="http://www.w3.org/2000/svg">
<path fill-rule="evenodd" clip-rule="evenodd" d="M5 0H35C37.7614 0 40 2.23858 40 5V34.9694C40 37.7309 37.7614 39.9694 35 39.9694H5C2.23858 39.9694 0 37.7309 0 34.9694V4.99999C0 2.23857 2.23858 0 5 0ZM25.1553 26.2563V39.9684H19.3159V26.2563H15.8122C15.2283 26.2563 14.9363 25.9646 14.9363 25.3811V21.0049C14.9363 20.4214 15.2283 20.1296 15.8122 20.1296H19.3159V15.7534C19.3159 10.7937 22.5275 8.16797 26.9071 8.16797H30.4108C30.9947 8.16797 31.2867 8.45972 31.2867 9.04321V12.5442C31.2867 13.1277 30.9947 13.4194 30.4108 13.4194H28.075C25.7392 13.4194 25.1553 14.5864 25.1553 16.3369V20.1296H30.7027C31.2867 20.1296 31.5786 20.4214 31.5786 21.0049L30.7027 25.3811C30.7027 25.9646 30.1188 26.2563 29.8268 26.2563H25.1553Z" fill="white"/>
</svg>
