<svg width="345" height="49" viewBox="0 0 345 49" fill="none" xmlns="http://www.w3.org/2000/svg">
<path d="M24.065 23.56V31.49H37.845C36.22 36.885 31.54 40.135 24.585 40.135C19.905 40.135 16.135 38.77 13.275 35.975C10.48 33.18 9.05 29.605 9.05 25.315C9.05 20.96 10.415 17.385 13.21 14.59C16.005 11.73 19.58 10.3 23.935 10.3C29.33 10.3 34.01 12.9 36.155 16.605L43.825 12.185C39.925 5.75 32.515 1.59 24 1.59C17.24 1.59 11.585 3.865 6.97 8.48C2.42 13.095 0.145 18.685 0.145 25.315C0.145 31.88 2.42 37.47 7.035 42.085C11.65 46.635 17.5 48.91 24.52 48.91C31.085 48.91 36.48 46.895 40.64 42.865C44.8 38.835 46.88 33.57 46.88 27.07V23.56H24.065ZM61.2552 15.5H52.8702V48H61.2552V32.465C61.2552 29.345 62.2302 27.135 64.2452 25.77C66.2602 24.405 68.6002 23.885 71.1352 24.21V14.85C66.7152 14.85 62.8152 16.93 61.2552 21.09V15.5ZM107.629 35.195C107.824 33.96 107.954 32.855 107.954 31.75C107.954 26.875 106.394 22.845 103.274 19.53C100.219 16.215 96.2541 14.59 91.5091 14.59C86.5041 14.59 82.3441 16.215 79.1591 19.53C75.9741 22.78 74.3491 26.875 74.3491 31.75C74.3491 36.69 75.9741 40.785 79.2241 44.035C82.4741 47.285 86.7641 48.91 92.1591 48.91C98.3991 48.91 103.144 46.57 106.329 41.955L99.5691 38.055C97.9441 40.2 95.4741 41.305 92.2891 41.305C87.2841 41.305 84.2291 39.29 83.1241 35.195H107.629ZM82.9941 28.695C83.9691 24.535 87.0241 22.13 91.5091 22.13C95.3441 22.13 98.5941 24.275 99.5691 28.695H82.9941ZM145.398 35.195C145.593 33.96 145.723 32.855 145.723 31.75C145.723 26.875 144.163 22.845 141.043 19.53C137.988 16.215 134.023 14.59 129.278 14.59C124.273 14.59 120.113 16.215 116.928 19.53C113.743 22.78 112.118 26.875 112.118 31.75C112.118 36.69 113.743 40.785 116.993 44.035C120.243 47.285 124.533 48.91 129.928 48.91C136.168 48.91 140.913 46.57 144.098 41.955L137.338 38.055C135.713 40.2 133.243 41.305 130.058 41.305C125.053 41.305 121.998 39.29 120.893 35.195H145.398ZM120.763 28.695C121.738 24.535 124.793 22.13 129.278 22.13C133.113 22.13 136.363 24.275 137.338 28.695H120.763ZM169.646 14.59C165.226 14.59 161.976 16.085 159.961 19.14V15.5H151.576V48H159.961V30.45C159.961 25.055 162.756 22.39 167.111 22.39C171.011 22.39 173.546 24.73 173.546 29.085V48H181.931V28.045C181.931 23.82 180.761 20.57 178.421 18.165C176.146 15.76 173.221 14.59 169.646 14.59ZM241.026 2.5L228.026 24.015L214.961 2.5H205.731V48H214.701V18.555L227.506 39.615H228.546L241.351 18.49V48H250.256V2.5H241.026ZM289.934 35.195C290.129 33.96 290.259 32.855 290.259 31.75C290.259 26.875 288.699 22.845 285.579 19.53C282.524 16.215 278.559 14.59 273.814 14.59C268.809 14.59 264.649 16.215 261.464 19.53C258.279 22.78 256.654 26.875 256.654 31.75C256.654 36.69 258.279 40.785 261.529 44.035C264.779 47.285 269.069 48.91 274.464 48.91C280.704 48.91 285.449 46.57 288.634 41.955L281.874 38.055C280.249 40.2 277.779 41.305 274.594 41.305C269.589 41.305 266.534 39.29 265.429 35.195H289.934ZM265.299 28.695C266.274 24.535 269.329 22.13 273.814 22.13C277.649 22.13 280.899 24.275 281.874 28.695H265.299ZM320.558 19.335C318.023 16.15 314.513 14.59 309.963 14.59C305.608 14.59 301.903 16.28 298.783 19.595C295.728 22.91 294.168 26.94 294.168 31.75C294.168 36.56 295.728 40.655 298.783 43.97C301.903 47.285 305.608 48.91 309.963 48.91C314.513 48.91 318.023 47.35 320.558 44.165V48H328.943V15.5H320.558V19.335ZM305.088 38.38C303.398 36.625 302.553 34.415 302.553 31.75C302.553 29.085 303.398 26.875 305.088 25.185C306.778 23.43 308.923 22.585 311.523 22.585C314.123 22.585 316.268 23.43 317.958 25.185C319.713 26.875 320.558 29.085 320.558 31.75C320.558 34.415 319.713 36.625 317.958 38.38C316.268 40.07 314.123 40.915 311.523 40.915C308.923 40.915 306.778 40.07 305.088 38.38ZM344.932 48V0.549999H336.547V48H344.932Z" fill="url(#paint0_linear_255_5239)"/>
<defs>
<linearGradient id="paint0_linear_255_5239" x1="36.4583" y1="64" x2="32.4774" y2="-71.2427" gradientUnits="userSpaceOnUse">
<stop stop-color="#B47F2B"/>
<stop offset="0.0933389" stop-color="#E0BD5F"/>
<stop offset="0.1398" stop-color="#F8DF7C"/>
<stop offset="0.2581" stop-color="#FFF4A7"/>
<stop offset="0.3602" stop-color="#F8DF7C"/>
<stop offset="0.4892" stop-color="#B47F2B"/>
<stop offset="0.5718" stop-color="#E0BD5F"/>
<stop offset="0.6129" stop-color="#F8DF7C"/>
<stop offset="0.7204" stop-color="#FFF4A7"/>
<stop offset="0.8387" stop-color="#F8DF7C"/>
<stop offset="1" stop-color="#B47F2B"/>
</linearGradient>
</defs>
</svg>
