<svg width="300" height="73" viewBox="0 0 300 73" fill="none" xmlns="http://www.w3.org/2000/svg">
<path d="M46.7543 45.5517C46.7905 45.2634 46.7182 45.0831 46.6459 44.9029C46.5737 44.7227 46.5375 44.6506 46.6821 44.5064C46.7905 44.3983 46.9711 44.5064 47.1156 44.6145C47.224 44.6866 47.3324 44.7587 47.4408 44.7227C47.5854 44.6866 47.6215 44.5064 47.6576 44.4343C47.7299 44.0738 47.6576 43.6052 47.5854 43.1366C47.5492 42.8122 47.477 42.4878 47.477 42.2715C47.477 42.0552 47.3324 41.8389 47.0795 41.6587C46.7182 41.4064 46.2124 41.2262 45.9956 41.2982C45.9594 41.2982 45.9594 41.2982 45.9233 41.3343C45.8872 41.3343 45.8872 41.3703 45.8872 41.4064C45.7788 41.6587 45.6704 41.911 45.562 42.1634C45.2729 42.3796 44.5142 42.9564 44.5503 43.2808C44.5503 43.2808 44.5142 43.3529 44.1167 43.461C43.8638 43.5331 43.5386 43.5692 43.2857 43.6052C43.0689 43.6413 42.8521 43.6773 42.7076 43.7134C42.1656 43.8215 41.2262 45.1552 41.1539 45.8041C41.1178 46.0203 41.19 46.1285 41.2623 46.2006C41.5152 46.4169 42.1295 46.1645 42.2017 45.4436C42.2379 45.1552 42.4546 44.975 42.8521 44.8669C43.3218 44.7587 43.8277 44.7948 44.0444 44.8308C44.3696 44.8669 44.5142 45.1552 44.6948 45.4436C44.8755 45.768 45.0923 46.0924 45.4536 46.1645C45.8149 46.2366 46.0678 46.2727 46.2846 46.2006C46.6459 46.0924 46.7182 45.768 46.7543 45.5517Z" fill="white"/>
<path d="M44.5505 39.3153C44.4782 39.4955 44.406 39.6758 44.3337 39.8921C44.2253 40.3246 44.2253 40.8653 44.6228 41.1537C44.7312 41.2258 44.8034 41.2618 44.8757 41.2618C44.9118 41.2618 44.948 41.2618 44.9841 41.2618C45.1647 41.2258 45.2731 41.0816 45.3454 41.0095C46.2126 40.0002 46.4294 38.5944 45.8151 37.549C45.779 37.513 45.7429 37.4769 45.7067 37.513C45.5622 37.549 45.3815 37.513 45.2009 37.513C45.0925 37.513 44.9841 37.513 44.9118 37.513C44.4782 37.513 44.3698 37.6932 44.3337 37.8374C44.2976 38.0537 44.5144 38.1258 44.695 38.1979C44.7312 38.1979 44.8034 38.2339 44.8396 38.27C44.8396 38.4141 44.8396 38.5944 44.7673 38.8107C44.7312 38.8827 44.6228 39.099 44.5505 39.3153Z" fill="white"/>
<path d="M38.661 37.9096C38.8055 38.27 38.9862 38.5944 39.492 38.3782C39.8895 38.1979 40.7928 37.8735 41.4431 37.7293C41.949 37.6212 42.0213 37.6933 42.0213 37.7293C42.0574 37.8014 42.1296 37.8735 42.2019 37.9456C42.4187 38.1619 42.7078 38.4503 42.6716 38.7026C42.6716 38.8107 42.5994 38.8828 42.491 38.9549C42.3103 39.0991 42.3464 39.2072 42.3464 39.2433C42.4548 39.4956 43.0691 39.4956 43.4304 39.4235C43.6472 39.3875 43.9001 39.2793 44.0446 39.0991C44.0808 39.027 44.153 38.8828 44.0808 38.7026C43.7917 37.9456 43.0329 36.5398 42.238 36.5037C41.4793 36.4677 40.2508 36.1433 40.1063 35.7107C40.034 35.4584 40.1785 34.9537 40.3231 34.4851C40.5037 33.9084 40.6844 33.3316 40.6121 32.8991C40.5399 32.5386 40.4315 32.07 40.2869 31.7095C40.0701 31.2409 39.7088 31.0607 39.3114 31.1688C39.203 31.2049 39.0946 31.2049 38.9862 31.2409C38.8778 31.277 38.7694 31.277 38.661 31.313C37.9745 31.4572 37.5048 32.034 37.4687 32.6828C37.4325 33.5119 37.3964 34.1607 37.2519 34.5933C37.0712 35.3502 37.2519 36.5037 38.0468 37.1886C38.4081 37.3689 38.5165 37.6572 38.661 37.9096Z" fill="white"/>
<path d="M43.4667 40.3968C43.2138 40.3608 42.9248 40.4689 42.8164 40.6491C42.7441 40.7212 42.6718 40.7573 42.5996 40.8294C42.5634 40.8654 42.5634 40.9015 42.5634 40.9375C42.5996 41.1538 42.5634 41.334 42.4912 41.5863C42.4912 41.6584 42.455 41.6945 42.455 41.7666C42.4189 42.0189 42.3828 42.3794 42.5634 42.6677C42.708 42.848 42.9609 42.9561 43.2138 42.9201C43.3222 42.884 43.4306 42.848 43.5029 42.7398C43.539 42.7038 43.539 42.6677 43.539 42.6317C43.3583 41.9829 43.3583 41.2619 43.5751 40.541C43.5751 40.4689 43.539 40.3968 43.4667 40.3968Z" fill="white"/>
<path d="M41.8045 38.7028C41.5877 38.5587 41.2625 38.5226 41.0096 38.5587C40.7205 38.6307 40.5399 38.7749 40.5038 39.0273C40.5038 39.0994 40.5038 39.1714 40.4676 39.2435C40.3592 40.1447 40.6844 40.7575 41.0819 41.4424C41.118 41.5145 41.1541 41.5505 41.1903 41.6226C41.2625 41.7308 41.3348 41.8749 41.5154 41.8749C41.5516 41.8749 41.5877 41.8749 41.6238 41.8749C41.6961 41.8389 41.8045 41.8029 41.9129 41.7308C42.3465 41.3342 42.5994 40.7215 42.5994 40.1447C42.5633 39.4959 42.2742 38.9912 41.8045 38.7028Z" fill="white"/>
<path d="M35.4453 45.3351C36.2763 45.1549 38.4803 42.0549 38.5887 41.8386C38.6249 41.7304 38.5887 41.6944 38.5887 41.6584C38.5165 41.5863 38.3719 41.5863 38.2635 41.6223C37.9745 41.6944 37.577 41.8386 37.4325 41.9467C36.6376 42.4514 34.9755 44.7223 35.1562 45.227C35.1562 45.263 35.2285 45.3711 35.4453 45.3351Z" fill="white"/>
<path d="M17.9576 47.8947C17.9576 47.8226 17.9215 47.8226 17.9215 47.7866C17.777 47.4261 17.5963 47.2819 17.4156 47.4261C17.3795 47.4621 17.3434 47.5342 17.2711 47.6424C17.2711 47.6424 17.2711 47.6784 17.2711 47.7145C17.2711 47.7145 17.2711 47.7145 17.2711 47.7505V47.7866C17.2711 47.8947 17.3073 48.0028 17.3073 48.147C17.3073 48.3273 17.2711 48.3633 17.3434 48.4714C17.3795 48.5075 17.4156 48.6517 17.4156 48.6517C17.4879 48.6517 17.5602 48.6877 17.6324 48.6877C17.6686 48.6877 17.7408 48.6517 17.777 48.6517C17.8131 48.6517 17.8492 48.6156 17.8492 48.5796C17.8854 48.5435 17.8854 48.4714 17.9215 48.3994C17.9938 48.2552 17.9938 48.0389 17.9576 47.8947Z" fill="white"/>
<path d="M47.0074 53.3377C47.0436 53.3377 47.1158 53.3016 47.152 53.2656C47.3688 53.0854 47.3326 52.8691 47.3326 52.6528C47.3326 52.4726 47.2965 52.3284 47.4049 52.1842C47.4771 52.1121 47.5494 52.04 47.6217 52.004C47.7301 51.9319 47.8385 51.8598 47.9107 51.7516C48.0553 51.5714 47.983 51.3551 47.8746 51.2109C47.7662 51.1028 47.6217 51.0667 47.441 51.0307H47.4049C47.2604 50.9947 47.1158 50.9947 46.9713 51.0307H46.9352C46.7184 51.1028 46.5016 51.3191 46.4655 51.5353C46.4293 51.7156 46.4655 51.8598 46.5738 51.9679C46.5738 52.1842 46.5377 52.4005 46.5377 52.6167V52.6528C46.5377 52.833 46.5016 53.0493 46.61 53.1935C46.6822 53.3377 46.8268 53.3737 47.0074 53.3377Z" fill="white"/>
<path d="M43.8278 61.4483C43.1774 61.7367 42.0935 62.4216 42.0573 62.4576C41.2624 63.0344 40.5759 63.575 40.5759 64.1157C40.5759 64.4762 40.9011 64.8006 41.2624 64.6564C41.407 64.5844 41.5515 64.4402 41.696 64.2239C41.8767 63.8995 42.527 63.3227 43.1051 62.8181C43.8278 62.1332 44.2975 61.7367 44.3698 61.4844C44.3698 61.4483 44.3698 61.3762 44.3698 61.3762C44.2975 61.3041 44.153 61.3041 43.8278 61.4483Z" fill="white"/>
<path d="M44.7311 52.1841C44.4782 52.2201 44.2614 52.3643 44.0446 52.5085C43.9362 52.5806 43.864 52.6166 43.7556 52.6887C43.6472 52.7608 43.5026 52.7969 43.3581 52.8329C43.1775 52.869 42.9968 52.905 42.8161 52.941C42.5993 52.9771 42.3464 53.0131 42.1296 53.0852C41.5154 53.2655 40.9373 53.8062 40.9734 54.3829C40.9734 54.4189 40.9734 54.419 41.0095 54.419H41.0457C41.0457 54.419 41.0457 54.419 41.0818 54.419C41.3347 54.2387 41.6238 54.1666 41.8767 54.0585C42.8161 53.7701 43.7556 53.4457 44.695 53.1213C44.9118 53.0492 45.1286 52.9771 45.237 52.7608C45.3092 52.6166 45.3092 52.4724 45.2731 52.3643C45.1647 52.2562 44.9479 52.148 44.7311 52.1841Z" fill="white"/>
<path d="M41.1542 61.7366C41.1542 61.7005 41.0819 61.6284 40.9374 61.7005C40.8651 61.7366 40.7206 61.8087 40.5761 61.9168C39.6728 62.6377 37.7217 63.3947 37.6855 63.3947C37.6855 63.3947 37.6494 63.3947 37.6494 63.4308C37.3603 63.6831 37.0713 64.0436 37.1436 64.2598C37.1797 64.404 37.3965 64.4401 37.7939 64.2959C38.0468 64.2238 38.3359 64.1156 38.625 64.0436C38.914 63.9715 39.2392 63.8633 39.4921 63.7552C39.998 63.5749 40.287 63.3587 40.4677 63.1424C40.7929 62.7459 41.2626 61.9529 41.1542 61.7366Z" fill="white"/>
<path d="M42.5634 54.5274C42.4188 54.5995 42.2743 54.6356 42.0936 54.7076C41.5517 54.8879 40.9374 55.1042 40.5038 55.4646C39.9257 55.9693 39.9619 56.1495 40.2148 56.5821C40.2509 56.6181 40.2871 56.6902 40.3232 56.7262C40.3593 56.8344 40.4316 56.9065 40.4677 56.9786C40.6122 57.1949 40.6845 57.339 40.7206 57.6995C40.7206 57.8076 40.7206 57.9518 40.7206 58.06C40.7206 58.3123 40.7206 58.5286 40.829 58.7449C40.9374 58.9251 41.1904 59.0332 41.4071 58.9611C41.5155 58.9251 41.5878 58.889 41.6601 58.7809C41.6601 58.7809 41.6962 58.7449 41.6962 58.7088C41.6601 58.3123 41.6601 57.9518 41.6239 57.5553C41.6239 57.3751 41.6239 57.1588 41.7323 57.0146C41.8407 56.9065 41.9853 56.8704 42.1298 56.8344H42.1659C42.2743 56.7983 42.3466 56.7983 42.4188 56.8344C42.5272 56.8704 42.5995 56.9786 42.6718 57.1228C42.7079 57.1949 42.7079 57.2309 42.744 57.2669C42.9247 57.5193 43.2499 57.5914 43.5389 57.4472C43.6834 57.339 43.828 57.1588 43.9002 56.9786C43.9725 56.7983 43.9364 56.6542 43.8641 56.546C43.7557 56.4018 43.575 56.3658 43.4305 56.3658C43.3221 56.3658 43.2499 56.3297 43.1776 56.2937C42.9247 56.1856 42.8163 55.8972 42.8885 55.5728C43.1776 55.5367 43.5028 55.3925 43.6834 55.1402C43.9002 54.8518 43.9725 54.6355 43.9002 54.4914C43.7196 54.239 42.8885 54.3832 42.5634 54.5274Z" fill="white"/>
<path d="M36.2401 63.3945C36.1317 63.3945 35.9872 63.4306 35.8426 63.4666C35.4452 63.6108 35.12 63.8992 35.0839 63.9352C35.0839 63.9352 35.0477 63.9713 35.0477 64.0073C35.0477 64.0434 35.0477 64.0434 35.0477 64.0794C35.2284 64.2957 36.0233 64.6562 36.4569 64.512C36.493 64.512 36.493 64.4759 36.5291 64.4759C36.6737 64.4038 36.7821 64.2236 36.7821 64.0434C36.8543 63.7189 36.6375 63.3945 36.2401 63.3945Z" fill="white"/>
<path d="M36.6015 64.4756C36.6377 64.3314 36.6015 64.2593 36.6015 64.2232C36.5654 64.1511 36.4209 64.0069 35.4453 64.2953C35.1924 64.3674 34.9756 64.4395 34.9756 64.4395C34.4698 64.6918 33.5665 65.3046 33.6387 65.5569C33.6749 65.7011 33.8917 65.6651 34.1084 65.629C34.3252 65.557 34.542 65.5209 34.7588 65.4488C34.9756 65.3767 35.1924 65.3407 35.4092 65.2686C35.915 65.1244 36.457 64.9081 36.6015 64.4756Z" fill="white"/>
<path d="M26.0874 57.4473C26.268 58.2403 26.7377 58.9612 27.1352 59.574C27.3881 59.9706 27.641 60.3671 27.7856 60.7275C27.8217 60.7996 27.8217 60.8717 27.8578 60.9438C28.1107 61.7729 28.3275 62.1694 30.3509 61.845C31.7601 61.6287 32.4104 61.7008 32.9885 61.7729C33.3499 61.8089 33.675 61.845 34.0725 61.8089C34.3977 61.7729 34.6506 61.7368 34.9035 61.6647C36.0236 61.3764 36.6017 60.6554 36.6379 59.4298C36.6379 58.9973 36.6379 58.6368 36.6379 58.2764C36.6379 57.0868 36.6017 56.2578 37.2882 55.7171C38.2999 54.888 38.6974 54.4554 38.6612 54.1671C38.6612 54.095 38.6251 53.9868 38.4444 53.9508C37.9386 53.8426 36.5295 52.4008 36.7824 51.5717C36.8908 51.2833 37.2521 50.8508 37.6495 50.4182C38.1915 49.7694 38.7335 49.1205 38.6251 48.6519C38.5528 48.4357 38.336 48.2915 37.9747 48.2194C36.9992 48.0391 36.6017 47.6066 36.3127 47.2822C36.0959 47.0298 35.9152 46.8496 35.5539 46.8496H35.5178C35.2287 46.9217 34.9035 47.5705 34.7951 47.8229C34.6145 48.0031 34.4338 48.2194 34.2532 48.4717C34.0725 48.688 33.8918 48.9043 33.7112 49.1205C33.6389 49.2287 33.5667 49.3008 33.4583 49.4089C33.2053 49.6973 32.9524 50.0217 32.6995 50.3461C31.6517 51.5717 30.5677 52.8694 29.9535 53.5182C29.8089 53.6624 29.6644 53.8066 29.556 53.9508C28.7973 54.7798 28.3637 55.2124 27.4604 55.4287C27.1713 55.5008 26.8461 55.5729 26.5932 55.7171C26.0874 56.0775 25.9067 56.5822 26.0874 57.4473Z" fill="white"/>
<path d="M32.9884 64.6562C32.4825 64.512 31.6515 64.6201 31.1818 64.6922C31.1456 64.6922 31.1095 64.6922 31.0372 64.6922C31.2902 64.512 31.507 64.1515 31.4708 63.8992C31.4347 63.719 31.2179 63.5748 30.4953 63.8271C29.1945 64.2597 28.1106 64.548 27.6409 64.6562C27.2434 64.7283 26.9905 64.6562 26.9905 64.6562C26.6292 64.4399 24.931 64.1876 24.1722 64.2957C24.1361 64.2957 24.0999 64.2957 24.0638 64.3318C24.0277 64.3318 24.0277 64.3318 23.9915 64.3678C23.9193 63.8632 24.0638 63.4306 24.2083 63.1062C24.389 62.6376 24.5335 62.2411 23.9554 61.8806C23.2328 61.4841 22.7631 61.3759 22.1488 61.2317C21.8959 61.1597 21.643 61.1236 21.3178 61.0155C20.4145 60.7631 19.8003 59.9701 19.4751 59.5015C19.4389 59.4294 19.4028 59.3934 19.3667 59.3213C19.2221 59.141 18.644 58.8887 17.6323 58.4562C16.4039 57.9155 14.8863 57.3027 14.1276 56.6538C11.3454 54.3469 8.491 54.491 8.41873 54.491C7.76836 54.5992 7.40704 54.7794 7.37091 55.0317C7.29865 55.3201 7.62383 55.6085 8.3826 55.9689C10.1531 56.8341 11.237 57.591 12.8991 59.105C13.2965 59.4655 13.8385 59.9701 14.4527 60.5829C16.6929 62.7457 19.7641 65.8097 20.8119 66.2422C21.4623 66.4946 22.2933 66.6027 22.9798 66.4946C23.558 66.4225 23.9554 66.1701 24.1361 65.8457C24.1361 65.8097 24.1722 65.8097 24.1722 65.7736C24.3167 65.8097 24.4974 65.8457 24.7503 65.8457C25.3284 65.8457 26.0511 65.8818 26.8098 65.9539C27.8938 66.0259 28.9777 66.098 29.7004 65.9178C30.4953 65.7376 31.4708 65.6655 32.1935 65.5573C32.5909 65.5213 32.88 65.4852 33.0245 65.4492C33.2413 65.3771 33.5303 65.2329 33.5665 65.0166C33.5303 64.9445 33.3497 64.8004 32.9884 64.6562Z" fill="white"/>
<path d="M5.92567 42.8482C6.68444 42.6319 7.62387 41.6226 7.98518 41.1901C8.02132 41.154 8.02132 41.118 8.05745 41.118C8.27424 40.9017 8.4549 40.6494 8.49103 40.6494C8.52716 40.6854 8.59943 40.9017 8.67169 41.154C8.81622 41.7308 9.06914 42.7761 9.82791 44.2901C10.6951 46.0203 10.8396 47.5343 10.8396 48.4715C10.8396 48.6878 10.8396 48.904 10.8396 49.0843C10.8396 49.9494 10.8396 50.4901 11.4177 50.6343C11.9958 50.7785 12.6823 51.5715 13.2604 52.725C13.6217 53.4459 13.9108 54.311 14.0192 54.9959C14.3082 56.582 17.4156 57.5552 19.0776 58.0959C19.2944 58.168 19.4751 58.2401 19.6558 58.2761C19.7641 58.3122 19.8725 58.3482 19.9809 58.3482C20.0532 58.3482 20.0893 58.3482 20.1255 58.3482C20.2339 58.3482 20.4507 58.2401 20.3784 57.9157V57.8796V57.8436C20.27 57.3389 19.6558 56.4738 18.9692 55.7889C18.3911 55.2122 18.3911 54.7796 18.355 54.311C18.355 53.9506 18.355 53.554 18.066 53.1215C17.7769 52.6889 17.3072 52.4366 16.5484 52.1122C16.4762 52.0761 16.4039 52.0401 16.3316 52.004C15.609 51.6796 14.7057 51.3192 13.7663 50.6703C12.4655 49.7331 12.4655 49.0122 12.5017 48.111C12.5017 47.7505 12.5378 47.354 12.4294 46.9215C12.321 46.1645 12.4294 45.5157 12.7907 45.011C13.0436 44.6505 13.405 44.3982 13.8385 44.2901C14.3444 44.1459 15.0309 44.2901 15.7174 44.6866C16.44 45.0831 17.1988 45.768 17.8853 46.6692C18.2105 47.0657 18.4273 47.4622 18.6079 47.7505C18.897 48.2552 19.1138 48.6157 19.5474 48.5075C20.0171 48.3994 20.7036 47.7866 22.5102 45.9482C25.9427 42.4517 24.4251 40.2889 22.3295 38.0901L22.2934 38.054C22.2572 38.018 22.2572 38.018 22.2211 37.9819C22.0043 37.7656 21.7875 37.5133 21.5707 37.297C21.0288 36.7563 20.6313 36.3238 20.27 35.9633C19.0415 34.7017 19.0415 34.7017 19.4028 34.161C19.5835 33.9087 19.8003 33.5482 20.0532 32.9715C20.0893 32.8994 20.1255 32.7912 20.1616 32.7191C20.3061 32.3947 20.4145 32.0703 20.6674 31.818C20.8481 31.6377 21.5707 31.4935 21.5346 31.2052C21.5346 30.8447 20.5229 30.4482 20.2339 30.3401C20.0532 30.268 19.5835 30.1598 19.6919 29.8714C19.728 29.7994 19.8003 29.7273 19.7641 29.6552C19.728 29.6191 19.6919 29.6191 19.6558 29.5831C19.1138 29.511 18.5357 29.511 18.066 29.2226C17.9937 29.1866 17.9214 29.1145 17.813 29.1145C17.6324 29.1145 17.4156 29.4389 17.3072 29.547C17.0543 29.7994 16.8375 30.0517 16.5846 30.304C16.4762 30.4482 16.3316 30.5563 16.151 30.5924C15.9703 30.6284 15.8258 30.4842 15.6451 30.5203C15.3561 30.5563 15.2477 30.9168 15.1393 31.2052C15.1031 31.2773 15.1031 31.3133 15.0309 31.3494C14.9948 31.3854 14.9586 31.3854 14.8864 31.3494C14.6696 31.3494 14.4528 31.3133 14.236 31.3133C14.1999 31.3133 14.1637 31.3133 14.0915 31.3133C13.9469 31.3854 14.0192 31.6017 13.9831 31.7459C13.9831 31.7819 13.405 31.7459 13.3688 31.7459C13.3327 31.7459 13.2966 31.7459 13.2604 31.7819C13.1882 31.818 13.1882 31.9261 13.2243 31.9982C13.3688 32.3947 13.4772 32.7912 13.6217 33.1877C13.4411 33.2238 13.2966 33.2238 13.1159 33.2598C13.0798 33.2598 13.0436 33.2598 13.0436 33.2598C13.0436 33.2598 13.0075 33.2238 13.0075 33.1877C13.0075 33.0435 13.0075 32.8994 13.0075 32.7552C13.0075 32.2866 12.5017 33.1877 12.4294 33.1877C12.1765 33.2598 11.9597 33.2959 11.7068 33.368C11.5622 33.2959 11.4177 33.2238 11.2732 33.1156C11.1648 32.8273 11.0564 32.5389 10.948 32.2866V32.2505C10.6951 31.9982 10.4783 31.7819 10.2254 31.5656C10.1531 31.3133 10.0808 31.0249 10.0086 30.7726C10.0086 30.7366 9.97243 30.7366 9.9363 30.7366C9.50272 30.8447 9.10527 30.9168 8.67169 31.0249C8.63556 30.9168 8.59943 30.8447 8.59943 30.7366C8.78008 30.1959 8.96074 29.6552 9.1414 29.1145C9.35819 28.9342 9.61112 28.7901 9.82791 28.6098C9.86404 28.5738 9.90017 28.5377 9.90017 28.5017C9.9363 27.7087 9.97243 26.9156 10.0086 26.1226C10.0086 26.0866 10.0086 26.0866 9.97243 26.0505C9.97243 26.0505 9.9363 26.0505 9.90017 26.0505C9.79177 26.0866 9.71951 26.1226 9.61112 26.1587C9.35819 25.8342 9.10527 25.4738 8.88848 25.1493C8.85235 25.1133 8.81622 25.1133 8.78008 25.1493C8.67169 25.2214 8.59943 25.2935 8.49103 25.3656C8.4549 25.4017 8.41877 25.4377 8.41877 25.4738C8.38263 25.7261 8.38263 26.0145 8.3465 26.2668C8.23811 26.3389 8.12971 26.3749 8.05745 26.447C8.02132 26.4831 7.98518 26.5191 7.98518 26.5552C7.94905 26.8075 7.91292 27.0238 7.84066 27.2761C7.58774 27.3121 7.37094 27.3842 7.11802 27.4563C7.08189 27.4563 7.08189 27.4924 7.04576 27.4924C6.64831 27.997 6.25086 28.4656 5.85341 28.9703C5.81728 29.0063 5.81728 29.0424 5.81728 29.0784C5.81728 29.1866 5.81728 29.2947 5.78115 29.4028C5.56435 29.7994 5.34756 30.2319 5.13077 30.6284C5.13077 30.6645 5.09464 30.6645 5.13077 30.7005C5.16691 30.9168 5.16691 31.097 5.20304 31.3133C4.98625 31.854 4.73332 32.3947 4.51653 32.9354C4.26361 32.9715 4.04682 33.0435 3.7939 33.0796C3.75777 33.0796 3.75777 33.1156 3.72163 33.1156C3.6855 33.1517 3.6855 33.1877 3.6855 33.1877C3.54097 33.8726 3.43258 34.5575 3.32418 35.2063C3.17966 35.3866 3.07126 35.5668 2.92673 35.747L2.8906 35.7831C2.74608 36.1796 2.60155 36.5761 2.49315 36.9726C2.45702 36.9726 2.38476 36.9726 2.34863 36.9726C2.31249 36.9726 2.27636 37.0087 2.27636 37.0087C2.24023 37.0447 2.24023 37.0808 2.24023 37.0808C2.2041 37.3691 2.0957 37.6215 2.0957 37.6215V37.6575C2.16797 38.0901 2.67381 38.4145 3.28805 38.811C4.08295 39.3517 5.02238 39.9645 4.91398 40.7575C4.76946 41.7308 4.87785 42.3436 5.20304 42.5598C5.41983 42.9203 5.63662 42.9203 5.92567 42.8482Z" fill="white"/>
<path d="M29.3392 36.8286C29.2669 36.7926 29.1946 36.7926 29.0863 36.7926C29.0863 36.7926 29.0863 36.7926 29.0501 36.7926C28.9779 36.7926 28.9417 36.7926 28.8695 36.7926C28.8695 36.7565 28.9056 36.7205 28.9056 36.7205C28.9056 36.7205 28.9417 36.6844 28.9779 36.6844C29.014 36.6484 29.0863 36.6123 29.1224 36.5763C29.1946 36.4681 29.1585 36.396 29.1224 36.324C29.0863 36.2879 28.9779 36.2519 28.9056 36.2519C28.8333 36.2519 28.7611 36.2158 28.6888 36.2519C28.5804 36.2879 28.472 36.396 28.472 36.5042H28.2191C28.1107 36.5042 28.0023 36.5402 27.93 36.5763C27.7494 36.6123 27.5687 36.7205 27.4242 36.7926C27.3881 36.7926 27.3519 36.8286 27.3519 36.8647C27.3519 36.9007 27.3519 36.9007 27.3519 36.9367C27.3519 37.0449 27.3158 37.153 27.3158 37.2612C27.3158 37.4054 27.3881 37.4414 27.5326 37.4054C27.6048 37.3693 27.7132 37.3693 27.7855 37.3333C27.8216 37.3333 27.8578 37.3333 27.8939 37.3333C27.93 37.3333 27.9662 37.3693 27.9662 37.3693C28.1107 37.4774 28.2191 37.5856 28.3275 37.6937C28.3636 37.7658 28.4359 37.8019 28.472 37.874C28.5081 37.91 28.5443 38.0181 28.5804 38.0542C28.6165 38.0542 28.6165 38.0542 28.6527 38.0542C28.7249 38.0181 28.7611 37.946 28.7972 37.874C28.8333 37.8019 28.8333 37.7298 28.8333 37.6577C28.8333 37.6577 28.8333 37.5135 28.7972 37.5135C28.8695 37.4414 29.014 37.4414 29.0501 37.3693C29.0863 37.3333 29.1224 37.2612 29.0863 37.2251C29.0863 37.1891 29.0863 37.1891 29.0863 37.153C29.0863 37.117 29.1585 37.117 29.1946 37.0809C29.2308 37.0449 29.303 37.0449 29.3392 37.0088C29.4114 36.9367 29.4114 36.8647 29.3392 36.8286Z" fill="white"/>
<path d="M30.2423 44.2176C30.2061 44.2176 30.2061 44.1816 30.17 44.1816C29.9532 44.0734 29.7364 44.0014 29.4835 43.9653C29.4474 43.9653 29.4474 43.9653 29.4112 43.9293C29.3751 43.8932 29.3751 43.8932 29.4112 43.8572C29.5557 43.8572 29.7364 43.8211 29.8087 43.6409C29.8809 43.4967 29.7725 43.3165 29.628 43.2444C29.4835 43.1723 29.339 43.2083 29.2306 43.2804C29.1583 43.3165 29.1222 43.3165 29.0499 43.3525C29.0138 43.3525 28.9415 43.4607 28.9054 43.4607C28.797 43.4607 28.6525 43.4967 28.5441 43.5327C28.4357 43.5688 28.2911 43.6769 28.255 43.7851C28.255 43.8211 28.255 43.8572 28.255 43.8932C28.255 43.9653 28.255 44.0014 28.255 44.0734V44.1095C28.255 44.1095 28.2189 44.1095 28.2189 44.1455C28.1827 44.1455 28.1466 44.2176 28.1827 44.2537V44.2897V44.3258C28.1466 44.3618 28.1105 44.4339 28.0743 44.47C28.0382 44.506 28.0382 44.542 28.0382 44.5781C28.0382 44.6141 28.0743 44.6502 28.1105 44.6862C28.1827 44.7223 28.255 44.7223 28.3273 44.7223H28.3634V44.7583C28.3634 44.8304 28.3634 44.9025 28.3273 44.9386C28.3273 44.9746 28.3273 45.0107 28.3273 45.0107C28.2911 45.1188 28.2911 45.263 28.4718 45.2269C28.6886 45.1548 28.9054 44.9025 29.0499 44.7223C29.1583 44.5781 29.3751 44.6862 29.4474 44.506C29.4835 44.3618 29.5919 44.3618 29.7364 44.3618C29.8809 44.3618 30.0616 44.3618 30.2061 44.3618C30.2784 44.3618 30.3868 44.3258 30.3507 44.2537C30.2784 44.2537 30.2423 44.2537 30.2423 44.2176Z" fill="white"/>
<path d="M71.7576 11.8121C63.9893 11.2714 59.256 13.5784 56.6184 16.5703C54.5589 18.9133 53.2943 22.1575 53.4027 25.2935C53.4388 26.447 53.6917 27.5284 54.0892 28.5017C54.7034 27.7807 57.1243 25.7621 59.5451 24.7889C62.255 23.7075 64.0977 23.0947 67.9638 21.3284C71.2518 19.8505 76.2741 16.354 76.4186 16.2458C69.8065 21.3645 65.9043 23.1307 61.3517 24.861C56.6907 26.6273 54.7396 29.7994 54.7396 29.7994C53.6195 30.8807 52.7523 32.9354 52.4633 33.5482C52.6439 33.7284 53.0775 35.4947 53.0775 35.4947C53.1136 33.8726 55.2815 30.5924 55.2815 30.5924C57.1604 33.0435 60.2316 34.5215 63.5196 34.6296C65.29 34.7017 67.0966 34.3773 68.7587 33.7284C73.6004 31.7819 76.5993 27.24 78.6949 22.6621C79.9957 19.8145 81.188 14.5517 81.2242 13.8307C81.2603 13.1098 82.0191 11.9563 82.0191 11.9563C80.8267 12.2807 79.526 12.3168 71.7576 11.8121Z" fill="white"/>
<path d="M52.2466 36.1073C52.2466 36.0713 52.2466 36.0713 52.2466 36.0352C52.0659 35.2062 51.8491 34.3771 51.6323 33.548C51.1265 31.7817 50.5845 29.9794 49.8258 28.2852C49.7535 28.105 49.6451 27.8887 49.5367 27.6364C49.3199 27.1317 49.067 26.6631 48.8502 26.1585C47.5494 23.2387 41.66 10.9468 32.627 6.22472C32.627 6.22472 42.5633 8.56774 49.8619 25.9061C50.0425 25.6178 50.2232 25.2934 50.3677 24.9689C51.9937 21.2201 52.7886 17.0747 51.8853 13.0736C51.0904 9.50496 49.1393 6.11658 46.2487 3.8096C43.6472 1.7189 40.6483 0.925871 37.4325 0.421219C33.9639 -0.155527 30.3507 -0.191573 26.9543 0.637498C26.051 0.853777 25.1477 1.14215 24.3167 1.53866C24.2444 1.57471 23.5218 2.00727 23.4495 1.97122C25.3645 2.90843 25.4007 5.93634 25.4729 7.73867C25.6174 10.8026 25.1116 13.9026 25.6897 16.9305C25.9426 18.2643 26.4123 19.5259 27.0266 20.7154C30.7843 27.9608 38.914 29.4027 46.2848 28.0329C47.0075 27.8887 47.6217 27.7085 48.1637 27.3841C49.2476 29.7631 49.8619 31.7817 50.44 34.0527C51.5962 38.4504 51.7046 42.1631 51.6685 45.2992C51.6323 46.8492 51.3433 50.2376 50.9097 51.7515C50.2955 54.0946 49.3199 56.5818 48.1276 58.6725C47.6217 59.5736 45.8874 61.7364 45.5261 62.1329C41.5877 66.6748 34.2529 70.6399 26.304 70.6399C12.2487 70.6399 1.87885 59.9702 0.505845 45.6597C0.252923 42.9201 0.505845 39.9283 1.37301 37.3329C0.469713 40.0724 0 42.9201 0 45.7678C0 56.6178 6.61212 66.026 16.0064 70.1353C19.2944 71.5772 22.9076 72.3702 26.6653 72.3702C28.9054 72.3702 31.1456 72.1179 33.3135 71.5772C35.373 71.0725 37.3964 70.3155 39.3114 69.3062C41.1541 68.333 42.8885 67.1434 44.4421 65.7737C45.9958 64.4039 47.3688 62.8539 48.5611 61.1597C49.7535 59.4655 50.7291 57.6271 51.524 55.6806C52.3189 53.6981 52.8608 51.6434 53.1499 49.5166C53.7641 45.0469 53.186 40.505 52.2466 36.1073Z" fill="white"/>
<path d="M80.0495 56.5855H93.725C93.8826 57.2145 94.0008 58.1189 94.0008 59.0232C94.0008 62.6011 92.9368 65.8251 90.6115 68.3021C88.1287 70.9364 84.6605 72.4698 80.1677 72.4698C72.0885 72.4698 65.4675 66.3362 65.4675 57.9616C65.4675 49.5869 72.0885 43.4534 80.1677 43.4534C84.6999 43.4534 88.2469 45.0654 90.8086 47.8569L87.1828 51.3955C85.3699 49.5083 83.2417 48.4467 80.1283 48.4467C75.0443 48.4467 70.7091 52.2212 70.7091 58.0009C70.7091 63.7806 75.0837 67.5551 80.2071 67.5551C83.1629 67.5551 85.1334 66.6115 86.5916 65.2747C87.6557 64.331 88.3651 62.8763 88.7986 61.107H80.0495V56.5855Z" fill="white"/>
<path d="M96.9171 52.8502H101.686V55.4845H102.001C102.947 53.6366 105.233 52.2998 107.44 52.2998C108.819 52.2998 109.726 52.575 110.396 53.0075L109.016 57.647C108.386 57.3325 107.676 57.1359 106.612 57.1359C103.814 57.1359 101.962 59.4556 101.962 62.5617V71.88H96.9171V52.8502Z" fill="white"/>
<path d="M129.628 67.2804C127.894 70.3865 124.938 72.4703 120.603 72.4703C114.81 72.4703 110.474 68.1847 110.474 62.3263C110.474 56.8612 114.652 52.1824 120.406 52.1824C126.554 52.1824 129.943 56.468 129.943 62.1691V62.6409C129.904 62.7981 129.904 62.9554 129.904 63.0734C129.864 63.1913 129.864 63.3486 129.864 63.5059H115.519C115.952 66.612 118.317 67.9881 120.682 67.9881C123.007 67.9881 124.505 66.7692 125.372 65.1965L129.628 67.2804ZM125.017 59.8886C124.899 58.4732 123.48 56.35 120.406 56.35C118.238 56.35 116.425 57.6868 115.755 59.8886H125.017Z" fill="white"/>
<path d="M151.461 67.2804C149.727 70.3865 146.771 72.4703 142.436 72.4703C136.643 72.4703 132.308 68.1847 132.308 62.3263C132.308 56.8612 136.485 52.1824 142.239 52.1824C148.387 52.1824 151.777 56.468 151.777 62.1691V62.6409C151.737 62.7981 151.737 62.9554 151.737 63.0734C151.698 63.1913 151.698 63.3486 151.698 63.5059H137.352C137.786 66.612 140.15 67.9881 142.515 67.9881C144.84 67.9881 146.338 66.7692 147.205 65.1965L151.461 67.2804ZM146.85 59.8886C146.732 58.4732 145.313 56.35 142.239 56.35C140.072 56.35 138.259 57.6868 137.589 59.8886H146.85Z" fill="white"/>
<path d="M159.856 55.3273H160.171C161.393 53.44 163.442 52.2212 166.044 52.2212C170.852 52.2212 173.216 55.4846 173.216 60.3206V71.8407H168.132V60.9497C168.132 58.1975 166.871 56.9 164.546 56.9C161.787 56.9 160.171 59.4163 160.171 62.5224V71.8407H155.087V52.811H159.856V55.3273Z" fill="white"/>
<path d="M186.576 44.0432H191.818V55.1308H203.523V44.0432H208.764V71.8408H203.523V60.1241H191.818V71.8408H186.576V44.0432Z" fill="white"/>
<path d="M231.82 67.2804C230.086 70.3865 227.13 72.4703 222.795 72.4703C217.001 72.4703 212.666 68.1847 212.666 62.3263C212.666 56.8612 216.844 52.1824 222.598 52.1824C228.746 52.1824 232.135 56.468 232.135 62.1691V62.6409C232.096 62.7981 232.096 62.9554 232.096 63.0734C232.056 63.1913 232.056 63.3486 232.056 63.5059H217.711C218.144 66.612 220.509 67.9881 222.873 67.9881C225.199 67.9881 226.696 66.7692 227.563 65.1965L231.82 67.2804ZM227.209 59.8886C227.09 58.4732 225.672 56.35 222.598 56.35C220.43 56.35 218.617 57.6868 217.947 59.8886H227.209Z" fill="white"/>
<path d="M247.348 69.836H247.032C245.811 71.2908 244.274 72.4703 241.633 72.4703C237.653 72.4703 234.5 69.7967 234.5 65.9436C234.5 62.0118 237.81 59.4955 242.264 59.4955C244.747 59.4955 246.284 59.9673 247.308 60.3998V59.81C247.308 57.8048 245.495 56.3107 243.091 56.3107C241.357 56.3107 239.82 57.0578 238.598 58.5125L234.894 55.9962C236.904 53.4799 239.663 52.1824 243.17 52.1824C249.082 52.1824 252.274 54.9739 252.274 60.3998V71.8019H247.269V69.836H247.348ZM243.407 63.1913C240.963 63.1913 239.584 64.4102 239.584 65.9436C239.584 67.5163 241.081 68.4992 242.737 68.4992C245.456 68.4992 247.348 66.4154 247.348 64.0956C246.165 63.5452 244.944 63.1913 243.407 63.1913Z" fill="white"/>
<path d="M256.412 71.8408V44.0432H261.496V71.8408H256.412Z" fill="white"/>
<path d="M268.156 57.1752H264.807V52.811H268.156V46.9919H273.24V52.811H277.891V57.1752H273.24V64.5669C273.24 65.4713 273.398 66.2183 273.91 66.7294C274.265 67.1619 274.817 67.3585 275.487 67.3585C276.393 67.3585 276.827 67.1619 277.26 66.8474L278.718 71.3296C277.497 71.9194 276.196 72.1946 274.501 72.1946C272.61 72.1946 271.033 71.5655 269.969 70.5432C268.748 69.3637 268.156 67.7124 268.156 65.5892V57.1752Z" fill="white"/>
<path d="M281.871 44.0432H286.955V51.8281L286.64 55.2881H286.955C288.059 53.4795 290.226 52.182 292.749 52.182C297.675 52.182 300 55.2881 300 60.2814V71.8015H294.916V60.9105C294.916 58.2762 293.576 56.8608 291.369 56.8608C288.571 56.8608 286.955 59.4164 286.955 62.5225V71.8015H281.871V44.0432Z" fill="white"/>
</svg>
