<svg width="54" height="54" viewBox="0 0 54 54" fill="none" xmlns="http://www.w3.org/2000/svg">
<circle cx="27" cy="27" r="22" fill="white"/>
<circle cx="27" cy="27" r="26" stroke="white" stroke-width="2"/>
<path d="M33.8813 37V33.01H25.9913L30.1013 28.9C32.4113 26.59 33.5513 24.37 33.5513 22.18C33.5513 20.17 32.8613 18.55 31.5113 17.38C30.1613 16.18 28.5113 15.58 26.6213 15.58C23.6513 15.58 21.0112 17.14 19.6913 20.02L23.1713 22.06C23.9213 20.41 25.0913 19.6 26.6813 19.6C28.2713 19.6 29.4113 20.68 29.4113 22.33C29.4113 23.44 28.6013 24.85 27.0113 26.53L19.8413 33.91V37H33.8813Z" fill="#14613C"/>
</svg>
