<svg width="54" height="54" viewBox="0 0 54 54" fill="none" xmlns="http://www.w3.org/2000/svg">
<circle cx="27" cy="27" r="22" fill="white"/>
<circle cx="27" cy="27" r="26" stroke="white" stroke-width="2"/>
<path d="M33.8462 20.42V17H20.6462V20.87H28.8662L24.7262 26.27L26.3162 28.67H27.2162C29.3462 28.67 30.5762 29.81 30.5762 31.52C30.5762 33.29 29.3462 34.37 27.2162 34.37C25.2962 34.37 24.0662 33.56 23.5562 31.94L20.0162 33.98C21.1862 36.89 23.9462 38.42 27.2162 38.42C29.3162 38.42 31.0862 37.82 32.5262 36.59C33.9962 35.36 34.7162 33.68 34.7162 31.52C34.7162 28.55 32.7662 26.36 29.9162 25.52L33.8462 20.42Z" fill="#14613C"/>
</svg>
