<svg width="22" height="21" viewBox="0 0 22 21" fill="none" xmlns="http://www.w3.org/2000/svg">
<path fill-rule="evenodd" clip-rule="evenodd" d="M9 16C12.866 16 16 12.866 16 9C16 5.13401 12.866 2 9 2C5.13401 2 2 5.13401 2 9C2 12.866 5.13401 16 9 16ZM9 18C13.9706 18 18 13.9706 18 9C18 4.02944 13.9706 0 9 0C4.02944 0 0 4.02944 0 9C0 13.9706 4.02944 18 9 18Z" fill="#284560"/>
<path fill-rule="evenodd" clip-rule="evenodd" d="M14.7071 14.293C15.0976 13.9025 15.7308 13.9025 16.1213 14.293L20.7071 18.8788C21.0976 19.2694 21.0976 19.9025 20.7071 20.293C20.3166 20.6836 19.6834 20.6836 19.2929 20.293L14.7071 15.7073C14.3166 15.3167 14.3166 14.6836 14.7071 14.293Z" fill="#284560"/>
</svg>
