<svg width="40" height="40" viewBox="0 0 40 40" fill="none" xmlns="http://www.w3.org/2000/svg">
<path fill-rule="evenodd" clip-rule="evenodd" d="M5 0H35C37.7614 0 40 2.23858 40 5V35C40 37.7614 37.7614 40 35 40H5C2.23858 40 0 37.7614 0 35V5C0 2.23858 2.23858 0 5 0ZM26.676 21.1249C26.9403 20.9998 27.2552 20.7656 27.2892 20.4752C27.3274 20.1499 27.0299 20.0164 26.7255 19.8799C26.6619 19.8514 26.5981 19.8227 26.5369 19.7922L16.7614 14.9096C16.2464 14.6523 15.4 14.237 15.4 14.8127V25.8927C15.4 26.3828 16.2135 26.0756 16.6564 25.866L26.676 21.1249Z" fill="white"/>
</svg>
